<svg width="680" height="560" viewBox="0 0 680 560" xmlns="http://www.w3.org/2000/svg">
<defs>
<marker id="a" viewBox="0 0 10 10" refX="8" refY="5" markerWidth="6" markerHeight="6" orient="auto-start-reverse"><path d="M2 1L8 5L2 9" fill="none" stroke="#185FA5" stroke-width="1.5" stroke-linecap="round"/></marker>
<marker id="t" viewBox="0 0 10 10" refX="8" refY="5" markerWidth="6" markerHeight="6" orient="auto-start-reverse"><path d="M2 1L8 5L2 9" fill="none" stroke="#0F6E56" stroke-width="1.5" stroke-linecap="round"/></marker>
<marker id="d" viewBox="0 0 10 10" refX="8" refY="5" markerWidth="6" markerHeight="6" orient="auto-start-reverse"><path d="M2 1L8 5L2 9" fill="none" stroke="#85B7EB" stroke-width="1.5" stroke-linecap="round"/></marker>
</defs>
<rect width="680" height="560" fill="white"/>

<!-- Actor boxes -->
<rect x="10"  y="10" width="90"  height="44" rx="6" fill="#378ADD" stroke="#185FA5" stroke-width="0.5"/>
<text x="55"  y="35" text-anchor="middle" font-family="Helvetica" font-size="11" font-weight="bold" fill="white">Guest VFS</text>

<rect x="128" y="10" width="106" height="44" rx="6" fill="#378ADD" stroke="#185FA5" stroke-width="0.5"/>
<text x="181" y="29" text-anchor="middle" font-family="Helvetica" font-size="11" font-weight="bold" fill="white">VirtioFS</text>
<text x="181" y="47" text-anchor="middle" font-family="Helvetica" font-size="9"  fill="#E6F1FB">guest driver</text>

<rect x="272" y="10" width="76"  height="44" rx="6" fill="#378ADD" stroke="#185FA5" stroke-width="0.5"/>
<text x="310" y="35" text-anchor="middle" font-family="Helvetica" font-size="11" font-weight="bold" fill="white">KVM</text>

<rect x="386" y="10" width="96"  height="44" rx="6" fill="#1D9E75" stroke="#0F6E56" stroke-width="0.5"/>
<text x="434" y="35" text-anchor="middle" font-family="Helvetica" font-size="11" font-weight="bold" fill="white">VirtioFSD</text>

<rect x="520" y="10" width="96"  height="44" rx="6" fill="#1D9E75" stroke="#0F6E56" stroke-width="0.5"/>
<text x="568" y="35" text-anchor="middle" font-family="Helvetica" font-size="11" font-weight="bold" fill="white">Host VFS</text>

<!-- Lifelines -->
<line x1="55"  y1="54" x2="55"  y2="540" stroke="#85B7EB" stroke-width="0.5" stroke-dasharray="4 4"/>
<line x1="181" y1="54" x2="181" y2="540" stroke="#85B7EB" stroke-width="0.5" stroke-dasharray="4 4"/>
<line x1="310" y1="54" x2="310" y2="540" stroke="#85B7EB" stroke-width="0.5" stroke-dasharray="4 4"/>
<line x1="434" y1="54" x2="434" y2="540" stroke="#5DCAA5" stroke-width="0.5" stroke-dasharray="4 4"/>
<line x1="568" y1="54" x2="568" y2="540" stroke="#5DCAA5" stroke-width="0.5" stroke-dasharray="4 4"/>

<!-- Activation bars -->
<rect x="51"  y="78"  width="8" height="432" rx="2" fill="#DAEAF8" stroke="#85B7EB" stroke-width="0.5"/>
<rect x="177" y="98"  width="8" height="412" rx="2" fill="#DAEAF8" stroke="#85B7EB" stroke-width="0.5"/>
<rect x="430" y="242" width="8" height="240" rx="2" fill="#D4F0E5" stroke="#5DCAA5" stroke-width="0.5"/>

<!-- Start dot -->
<circle cx="55" cy="78" r="5" fill="#378ADD"/>

<!-- msg 1: virtiofs_read -->
<line x1="59" y1="98" x2="177" y2="98" stroke="#185FA5" stroke-width="1" marker-end="url(#a)"/>
<text x="116" y="92" text-anchor="middle" font-family="Courier" font-size="9" fill="#185FA5">virtiofs_read(...)</text>

<!-- Self-call loops on VirtioFS driver (activation bar right edge = x=185)
     Loop: out from x=185 to x=220, down 22px, back to x=185 with arrow -->
<!-- forge_request() -->
<polyline points="185,128 220,128 220,150 185,150" fill="none" stroke="#378ADD" stroke-width="0.8" marker-end="url(#a)"/>
<text x="224" y="143" font-family="Courier" font-size="9" fill="#185FA5">forge_request()</text>

<!-- queue_request() -->
<polyline points="185,178 220,178 220,200 185,200" fill="none" stroke="#378ADD" stroke-width="0.8" marker-end="url(#a)"/>
<text x="224" y="193" font-family="Courier" font-size="9" fill="#185FA5">queue_request()</text>

<!-- phase band -->
<rect x="118" y="218" width="492" height="20" rx="3" fill="#DAEAF8" stroke="#85B7EB" stroke-width="0.5"/>
<text x="364" y="232" text-anchor="middle" font-family="Helvetica" font-size="9" fill="#185FA5">VM exit — notification crossing</text>

<!-- msg 4: signal_queue -> KVM -->
<line x1="185" y1="254" x2="308" y2="254" stroke="#185FA5" stroke-width="1" marker-end="url(#a)"/>
<text x="244" y="248" text-anchor="middle" font-family="Courier" font-size="9" fill="#185FA5">signal_queue()</text>
<rect x="306" y="244" width="8" height="24" rx="2" fill="#DAEAF8" stroke="#85B7EB" stroke-width="0.5"/>

<!-- msg 5: notify -> VirtioFSD -->
<line x1="314" y1="256" x2="430" y2="256" stroke="#185FA5" stroke-width="1" marker-end="url(#a)"/>
<text x="370" y="250" text-anchor="middle" font-family="Courier" font-size="9" fill="#185FA5">notify()</text>

<!-- await_reply() -->
<polyline points="185,282 220,282 220,304 185,304" fill="none" stroke="#378ADD" stroke-width="0.8" marker-end="url(#a)"/>
<text x="224" y="297" font-family="Courier" font-size="9" fill="#185FA5">await_reply()</text>

<!-- msg 7: read -> Host VFS -->
<line x1="438" y1="340" x2="566" y2="340" stroke="#0F6E56" stroke-width="1" marker-end="url(#t)"/>
<text x="500" y="334" text-anchor="middle" font-family="Courier" font-size="9" fill="#0F6E56">read(...)</text>
<rect x="564" y="340" width="8" height="36" rx="2" fill="#D4F0E5" stroke="#5DCAA5" stroke-width="0.5"/>

<!-- msg 8: read data <- Host VFS (dashed) -->
<line x1="564" y1="386" x2="438" y2="386" stroke="#5DCAA5" stroke-width="1" stroke-dasharray="5 3" marker-end="url(#t)"/>
<text x="500" y="380" text-anchor="middle" font-family="Courier" font-size="9" fill="#0F6E56">read data</text>

<!-- Self-call loops on VirtioFSD (activation bar right edge = x=438)
     Loop: out from x=438 to x=472, down 22px, back with arrow -->
<!-- forge_response() -->
<polyline points="438,412 472,412 472,434 438,434" fill="none" stroke="#1D9E75" stroke-width="0.8" marker-end="url(#t)"/>
<text x="476" y="427" font-family="Courier" font-size="9" fill="#0F6E56">forge_response()</text>

<!-- queue_response() -->
<polyline points="438,458 472,458 472,480 438,480" fill="none" stroke="#1D9E75" stroke-width="0.8" marker-end="url(#t)"/>
<text x="476" y="473" font-family="Courier" font-size="9" fill="#0F6E56">queue_response()</text>

<!-- msg 11: read data <- driver (dashed) -->
<line x1="177" y1="510" x2="59" y2="510" stroke="#85B7EB" stroke-width="1" stroke-dasharray="5 3" marker-end="url(#d)"/>
<text x="116" y="504" text-anchor="middle" font-family="Courier" font-size="9" fill="#185FA5">read data</text>

<!-- start/return chips -->
<rect x="10"  y="70"  width="40" height="14" rx="3" fill="#EEF4FB" stroke="#85B7EB" stroke-width="0.5"/>
<text x="30"  y="81"  text-anchor="middle" font-family="Helvetica" font-size="8" fill="#185FA5">start</text>
<rect x="10"  y="522" width="40" height="14" rx="3" fill="#EEF4FB" stroke="#85B7EB" stroke-width="0.5"/>
<text x="30"  y="533" text-anchor="middle" font-family="Helvetica" font-size="8" fill="#185FA5">return</text>
</svg>
